<?xml version="1.0" encoding="UTF-8"?>
<svg id="Layer_1" xmlns="http://www.w3.org/2000/svg" version="1.1" xmlns:xlink="http://www.w3.org/1999/xlink" viewBox="0 0 1200 654">
  <!-- Generator: Adobe Illustrator 30.2.1, SVG Export Plug-In . SVG Version: 2.1.1 Build 1)  -->
  <defs>
    <style>
      .st0 {
        fill: url(#linear-gradient2);
      }

      .st1 {
        fill: url(#linear-gradient36);
      }

      .st2 {
        fill: url(#linear-gradient39);
      }

      .st3 {
        fill: url(#linear-gradient34);
      }

      .st4 {
        fill: url(#linear-gradient33);
      }

      .st5 {
        fill: url(#linear-gradient10);
      }

      .st6 {
        fill: url(#linear-gradient32);
      }

      .st7 {
        fill: url(#linear-gradient21);
      }

      .st8 {
        fill: url(#linear-gradient37);
      }

      .st9 {
        fill: url(#linear-gradient27);
      }

      .st10 {
        fill: url(#linear-gradient35);
      }

      .st11 {
        fill: url(#linear-gradient26);
      }

      .st12 {
        fill: url(#linear-gradient1);
      }

      .st13 {
        fill: url(#linear-gradient9);
      }

      .st14 {
        fill: url(#linear-gradient18);
      }

      .st15 {
        fill: url(#linear-gradient23);
      }

      .st16 {
        fill: url(#linear-gradient8);
      }

      .st17 {
        fill: url(#linear-gradient11);
      }

      .st18 {
        fill: url(#linear-gradient16);
      }

      .st19 {
        fill: url(#linear-gradient24);
      }

      .st20 {
        fill: url(#linear-gradient30);
      }

      .st21 {
        fill: url(#linear-gradient22);
      }

      .st22 {
        fill: url(#linear-gradient29);
      }

      .st23 {
        fill: url(#linear-gradient19);
      }

      .st24 {
        fill: url(#linear-gradient12);
      }

      .st25 {
        fill: url(#linear-gradient28);
      }

      .st26 {
        fill: url(#linear-gradient40);
      }

      .st27 {
        fill: url(#linear-gradient7);
      }

      .st28 {
        fill: url(#linear-gradient20);
      }

      .st29 {
        fill: url(#linear-gradient4);
      }

      .st30 {
        fill: url(#linear-gradient31);
      }

      .st31 {
        fill: url(#linear-gradient14);
      }

      .st32 {
        fill: url(#linear-gradient5);
      }

      .st33 {
        fill: url(#linear-gradient3);
      }

      .st34 {
        fill: url(#linear-gradient38);
      }

      .st35 {
        fill: url(#linear-gradient25);
      }

      .st36 {
        fill: url(#linear-gradient15);
      }

      .st37 {
        fill: url(#linear-gradient17);
      }

      .st38 {
        fill: url(#linear-gradient6);
      }

      .st39 {
        fill: url(#linear-gradient13);
      }

      .st40 {
        fill: url(#linear-gradient);
      }
    </style>
    <linearGradient id="linear-gradient" x1="379.2" y1="181.4" x2="382.7" y2="181.4" gradientUnits="userSpaceOnUse">
      <stop offset="0" stop-color="#309fb0"/>
      <stop offset="1" stop-color="#1421f0"/>
    </linearGradient>
    <linearGradient id="linear-gradient1" x1="403.7" y1="236.1" x2="799.5" y2="236.1" xlink:href="#linear-gradient"/>
    <linearGradient id="linear-gradient2" x1="507.3" y1="505.2" x2="818.5" y2="505.2" xlink:href="#linear-gradient"/>
    <linearGradient id="linear-gradient3" x1="335.5" y1="452.7" x2="743.4" y2="452.7" xlink:href="#linear-gradient"/>
    <linearGradient id="linear-gradient4" x1="407" y1="442" x2="634.2" y2="442" xlink:href="#linear-gradient"/>
    <linearGradient id="linear-gradient5" x1="369.3" y1="221.7" x2="734.4" y2="221.7" xlink:href="#linear-gradient"/>
    <linearGradient id="linear-gradient6" x1="711.3" y1="304.1" x2="864.5" y2="304.1" xlink:href="#linear-gradient"/>
    <linearGradient id="linear-gradient7" x1="467.7" y1="350.5" x2="662.2" y2="350.5" xlink:href="#linear-gradient"/>
    <linearGradient id="linear-gradient8" x1="486.9" y1="135.7" x2="723.3" y2="135.7" xlink:href="#linear-gradient"/>
    <linearGradient id="linear-gradient9" x1="340.9" y1="316.1" x2="404.4" y2="316.1" xlink:href="#linear-gradient"/>
    <linearGradient id="linear-gradient10" x1="598.1" y1="333.7" x2="745.2" y2="333.7" xlink:href="#linear-gradient"/>
    <linearGradient id="linear-gradient11" x1="454.9" y1="177.2" x2="597.6" y2="177.2" xlink:href="#linear-gradient"/>
    <linearGradient id="linear-gradient12" x1="756.5" y1="362.7" x2="837.6" y2="362.7" xlink:href="#linear-gradient"/>
    <linearGradient id="linear-gradient13" x1="736.6" y1="269.3" x2="779.6" y2="269.3" xlink:href="#linear-gradient"/>
    <linearGradient id="linear-gradient14" x1="420.3" y1="241.1" x2="458.7" y2="241.1" xlink:href="#linear-gradient"/>
    <linearGradient id="linear-gradient15" x1="604.9" y1="176.5" x2="662.3" y2="176.5" xlink:href="#linear-gradient"/>
    <linearGradient id="linear-gradient16" x1="676.7" y1="267.7" x2="710.1" y2="267.7" xlink:href="#linear-gradient"/>
    <linearGradient id="linear-gradient17" x1="546" y1="203" x2="603.6" y2="203" xlink:href="#linear-gradient"/>
    <linearGradient id="linear-gradient18" x1="488.2" y1="227.4" x2="545.6" y2="227.4" xlink:href="#linear-gradient"/>
    <linearGradient id="linear-gradient19" x1="714.2" y1="477.8" x2="839.1" y2="477.8" xlink:href="#linear-gradient"/>
    <linearGradient id="linear-gradient20" x1="732.4" y1="388" x2="798.3" y2="388" xlink:href="#linear-gradient"/>
    <linearGradient id="linear-gradient21" x1="658.5" y1="335.6" x2="718.4" y2="335.6" xlink:href="#linear-gradient"/>
    <linearGradient id="linear-gradient22" x1="683.9" y1="346.4" x2="724.3" y2="346.4" xlink:href="#linear-gradient"/>
    <linearGradient id="linear-gradient23" x1="651.3" y1="367.5" x2="682.7" y2="367.5" xlink:href="#linear-gradient"/>
    <linearGradient id="linear-gradient24" x1="534.3" y1="340" x2="553" y2="340" xlink:href="#linear-gradient"/>
    <linearGradient id="linear-gradient25" x1="527.7" y1="323.6" x2="539.1" y2="323.6" xlink:href="#linear-gradient"/>
    <linearGradient id="linear-gradient26" x1="534.5" y1="358.6" x2="553.5" y2="358.6" xlink:href="#linear-gradient"/>
    <linearGradient id="linear-gradient27" x1="513.9" y1="340.3" x2="531.8" y2="340.3" xlink:href="#linear-gradient"/>
    <linearGradient id="linear-gradient28" x1="514" y1="358.8" x2="531.9" y2="358.8" xlink:href="#linear-gradient"/>
    <linearGradient id="linear-gradient29" x1="708.7" y1="420.5" x2="714.4" y2="420.5" xlink:href="#linear-gradient"/>
    <linearGradient id="linear-gradient30" x1="723.1" y1="426.2" x2="727.8" y2="426.2" xlink:href="#linear-gradient"/>
    <linearGradient id="linear-gradient31" x1="733.3" y1="420.6" x2="736.3" y2="420.6" xlink:href="#linear-gradient"/>
    <linearGradient id="linear-gradient32" x1="736.6" y1="424.1" x2="739.4" y2="424.1" xlink:href="#linear-gradient"/>
    <linearGradient id="linear-gradient33" x1="701" y1="421.8" x2="702.7" y2="421.8" xlink:href="#linear-gradient"/>
    <linearGradient id="linear-gradient34" x1="693.3" y1="423.8" x2="695" y2="423.8" xlink:href="#linear-gradient"/>
    <linearGradient id="linear-gradient35" x1="688.7" y1="425" x2="690.4" y2="425" xlink:href="#linear-gradient"/>
    <linearGradient id="linear-gradient36" x1="719.7" y1="426.9" x2="721.4" y2="426.9" xlink:href="#linear-gradient"/>
    <linearGradient id="linear-gradient37" x1="714.5" y1="428.2" x2="716.2" y2="428.2" xlink:href="#linear-gradient"/>
    <linearGradient id="linear-gradient38" x1="706.3" y1="421.2" x2="707.9" y2="421.2" xlink:href="#linear-gradient"/>
    <linearGradient id="linear-gradient39" x1="572.6" y1="341.7" x2="628.4" y2="341.7" xlink:href="#linear-gradient"/>
    <linearGradient id="linear-gradient40" x1="586.7" y1="340" x2="587.3" y2="340" xlink:href="#linear-gradient"/>
  </defs>
  <path class="st40" d="M380.5,184.1l-1.3-.3c.7-1.8,1.5-3.9,3.5-5.1.2,2.2-.6,4.3-2.2,5.3Z"/>
  <g>
    <path class="st12" d="M445.1,387.3c-1.5,1.7-3.3,4.7-5.4,5.1-11.9,1-23.8,0-35.8-.8-.8-.8.4-3.1,1.3-3.9,6.5-6.1,11.8-12.4,17.7-19.1l35.3-39.7,21.2-23.5,42.6-47.2c3.7-4.1,6.6-8.4,11-11.9,4.7,3.2,7.9,7.8,11.9,11.6l9.7,9.1c.6.5,1.4.8,1.9.7s1.2-.5,1.8-1.1l39.4-43.3c.8-.9,2.4-3.1,3.6-2.2,3.9,2.8,6.6,6.7,10.2,9.8,5.1,4.3,9.7,8.7,14.5,13.3s3.1,1.7,4.4.2l66.4-73.6,13.1-15,33.1-36.5c1.2-1.3,2.1-4,.9-5.4-2.8-3.1-5.7-5.9-8.7-8.7s-3.7-3.2-4.5-6.4l26-7.3,42.3-12c.8,3.4,0,6.4-.6,9.7l-9.4,51.4c-.8,4.6-1.5,8.8-3.1,13.4-5.6-5.9-10.3-11.3-16-16.3s-3.1.7-3.8,1.5l-20.5,22.2-54.8,60.1-25.8,28.1-35.3,39c-.8.8-2.9-.7-3.5-1.3-6.4-6.8-13.5-12.8-20.2-19.1s-2.3-3.4-4.3-3.5-4.1.6-5.8,2.5l-17.4,19.4-21.7,23.9-11.7-11.4-8.8-8.6c-1.5-1.4-3.5-1.7-5,0l-8.6,10.1c-5,5.9-9.9,11.5-15.1,17.2l-17.4,18.8-23.6,26.1-21.6,24.6Z"/>
    <path class="st0" d="M639.3,576.7c53.9-18.2,58.6-53.2,100.5-65.8,6.9-2.1,13.6-4.5,20.9-5.1s5.2,1.5,8,1.7c-4.9,12.3-18.5,14.2-29.6,22-6.8,4.8-11.9,10.8-18.1,16.2-9,7.8-18.1,15.2-28.4,21.2-17.3,10.1-35.7,17.6-55.3,21-17.8,3.1-30.2,3.7-47.9,2.7l-13.6-.7-33.8-4.6c-5.9-.8-29.1-6.9-34.6-11.1,5.8-1.9,10.4.9,15.6,1.1,7.4.3,14.8.8,22.2,0,35.2-4,67-21.3,86.4-51.2l9.4-14.6c8.4-13.1,17.7-24.8,28.8-35.8,11.3-11.1,24.7-19.9,40.1-23.6,20.5-4.9,32.7-1.8,52.7-4.3,8.7-.5,16.5-2.9,24.4-6.1,11.8-4.7,21.5-11.5,31.5-20.4-7.5,24.2-34.1,42.7-57.8,43.8-7.9.4-15.5.2-23.4-.2-8.8-.4-17.4-1.2-25.9.7-7.3,1.7-14.7,3.3-20.9,7.7-10,7.1-17,19.3-21.2,31.4,3.5-1.9,5-5.1,7.4-7.7,8.2-9.2,19.1-20.4,32.3-21.2s34.6,1.6,48.7,0c10.5-1.1,20.5-3.1,30.2-7.4s10.8-7.6,16.9-12c-4.1,12.1-9.3,23-17.3,32.3-16.5,19.2-22.2,6.1-37,11.5s-5.2,1.2-7.8,1.9c-25.7,6.9-35.4,13.6-54.4,32.3-30.2,29.6-51.6,41.1-93.8,50.8,5,1.5,9.7.8,14.3.2,10.5-1.2,20.3-3.4,30.5-6.8Z"/>
    <path class="st33" d="M688.7,425c.3.2.8.8,1.1.6.4-.2.8-.9.4-1.3.9-.3,2.1-.7,3-.7s.7,1,1.1.7.8-.9.4-1.3l6.2-1.3c.3.2.8.8,1.1.7.5-.3.8-.8.5-1.2l3.7-.2c.2.2.4.5.6.6.4.2.6,0,.8-.2.3-.4.4-.7.1-.9.3,0,.8,0,1,0-1.1.8,6.9,1.5,5.4-.5h19.2c-.4.8.5,1.3,1.1,1.2s1.7,0,1.8-.8c2.3.8,4.7.8,7.1,1.3,0,.6.1,1.2,0,1.9-1.2-.2-2.7.6-3.9.3-.6-.4-1.1-.9-1.9-.3s-1,.7-.9,1.4l-8.8.8c-1.4.1-4.4-1-4.8,1.2-.6,0-1.1.1-1.7.1-.2-.3-.8-.8-1.1-.7-.5.2-.8.8-.5,1.2-1.2,0-2.5.2-3.6.8.2-.6-.6-.9-1.1-.7s-.8.8-.5,1.2c-14.8,4.1-29.1,10.7-41.3,20.7-14.9,12.1-27.3,26.6-37.3,42.9l-16.5,26.7c-6.8,10.9-15.4,19.7-25.8,27.3-15.3,11.1-36.3,19.8-55.4,20.8-10.1.5-36.8.7-45.6-2.1l-6.5-2c-7.4-2.3-14.1-4.7-20.8-8.3-8-4.4-15.5-8.4-23.1-13.9-19.8-14.3-37-31.3-52.2-50.4s-10.9-15.8-16-24.3c-8.2-13.8-15.6-27.3-21.4-42.4-10.7-27.7-17.7-55.9-17.1-85.9,2.6,10.8,3.9,20.8,7.4,31,2.1,9.6,5.8,18.2,9.5,27.2,6.4,15.7,15.1,29.3,25.6,42.4,7.3,9.1,14.3,17.7,23.5,25.1,3.7,3,7.1,6.3,11,9,13.8,9.7,11.6,19.7,33.5,29.1s13.9,5.6,21.6,7.7c19,5.1,38.9,5.2,58,.3,10.3-2.6,19.8-5.7,29.6-9.3s22.2-10.1,33.8-16.6c-18.2,25.4-45.8,46.7-76,52.3-9.7,1.8-19.3,1.1-28.6-.4-4.6-.7-8.4-2.7-12.6-4.3-7.5-2.8-15.1-4.9-22-9-6.9-4.1-12.7-9.3-19.3-13.7s-13-9-18.9-14.7-16.7-16.8-17.7-14.3,15.6,20.6,18.1,23.5c5.8,6.6,11.6,12.6,18.7,17.6l7.2,5.1c14.8,10.5,33.4,17.1,51.4,19.2,6.8.8,13.1,1.2,19.9.6,26.5-2.2,49.5-13.6,69.4-31,9.4-8.3,17.9-16.9,25.5-27,21-27.9,50.9-53.3,84.6-62.7Z"/>
    <path class="st29" d="M496.9,449.2c8.6,11.4,18.8,20.6,31.7,26.1,7,3,14.4,4.5,21.9,6,3.2.6,22.5-5.2,25.2-9.9-23-3.6-35.7-3.9-56.3-14.1s-7.2-2.8-9.7-5.8-5.6-6.6-7.3-11.2c22.9,11.5,35.2,16.7,60,21.4,4.5.8,8.6,1.5,13.3,1.8,4.6.2,9.6,2.1,14.3.5,4-1.4,13.3-6.1,15.3-9,2-2.8-14.6-1-17.5-1.1-7.1,0-13.7-2-20.7-2.4-12.4-.8-26.2-5.5-37.5-10.5-13.1-5.8-25.8-11.6-37.7-20-6.8-4.8-27.5-22.4-33.3-28.5s-4.2-3.7-4.2-6.3,2.1-4.3,4.1-5.2l17.2,17c13.8,13.7,30.2,23.5,47.9,31.7,32.9,15.2,74.3,20,110.5,12.7-1.3,3.6-4.4,5.3-7.3,7.2l-29.8,20.5c-5.5,3.8-11,6.3-16.9,9.2l-10.7,5.3-20.2,9.5c-12.6,5.9-43.9,10.5-58.1,8l-13.2-2.3c-21.5-3.7-42.9-13.5-57.6-29.4-14.5-15.7-19.2-43.5-4-60.6,9.8-11,26.2-14.7,39.5-8.8s9.9,4.7,14.2,8.7c13.2,12.4,17.3,26.7,26.8,39.3ZM456.9,425.9c10.3,5.6,11.4,12.6,15,18.5s1.5.2,1.5-.4c-.4-4.4-1.4-8.1-2.9-12.2-3-8.5-11-15.8-20.1-16.8s-12.4.1-17,3.9c-6.6,5.4-9.7,14-9,22.5s2.2,11,4.5,15.9,3.2,1.9,4.5,1.3c3.7-1.8-4.1-13.1,1.7-25.7,4-8.8,13.1-11.7,21.8-7ZM532.3,484.2c-10.4.9-20.2.1-30.3-1s-8.6-2.1-13.1-3.1c-8.4-2-15.6-6.2-22.9-10.7-9.5-5.8-17.2-11.5-19.1-23.5.3-5,4-8.7,9-8s1.7,0,1.9-.4.3-1.4-.2-2c-3.4-3.8-9.5-4.1-13.4-1-7.5,6.2-5.3,21.1,1.1,28.4,15.1,17.4,37.7,26,60.4,27.6,4,.3,7.6.5,11.8,0s18.2-2,20.7-5.3c-1.6-1.8-3.6-1.1-5.9-.9Z"/>
    <path class="st32" d="M389.3,334.9c1.3,7,5.1,12.8,7.7,19,2.9,7,6.5,13.3,9.9,20.2,0,2.5-2.8,4.7-4.7,6.4-2.3-2.4-9-15.7-10.3-18.7l-10.8-25.4c-.9-2.1-.4-4.7,1.2-6.5l24-26.2c2.4-2.6,3.1-4.7,2.1-8.2s-.1-6.1-2.1-8.3c-4.3,2.8-6.9,7.2-10.2,10.9s-8.7,8.9-12.5,14-4.3,5.3-7.5,7.7c-1.6-2.4-3.7-7.6-1.4-10.2l13.7-15.4c5.2-5.9,11.1-11,15.3-17.7,2-3.7.1-9.7,0-13.8-4.1.8-5.3,4-7.4,6.5l-4.1,5c-1.4,1.7-18.9,20.7-19.8,23.1s-1.6.4-1.8-.4c-1.8-7.5-1.7-33.5-1-41.7,2.2-26.1,8.4-46.3,20.5-69.2,9.3-17.6,20.7-33.3,34.4-47.5,14.1-14.6,37.7-33.1,57.1-42.4-1.5,3.5-5.1,5.7-8.1,8-21.5,16.7-42.6,38.8-57.2,61.9-12.4,19.7-21,40.6-25.3,63.6-1.5,8-2,15.9-2.5,24.1s-1.6,7.3.1,11.5c21.5-22.3,13.2-11.4,17.8-38.8,2.5-15,6.6-28.6,12.3-42.7,8.6-21.4,20.7-40.5,36.5-57.3,8.5-9.1,17-17.8,27.1-25.2,23.3-17,49.9-28.4,78.1-34.2,6.7-1.4,12.9-1.9,19.5-2.5l10.5-1c6.1-.6,12.4-.7,18.5,0l8.6.9c45.6,5,82.7,20.7,116.6,52.2-.7,2.5-2.8,4.7-4.8,5.6-5-1.6-8.6-6.3-12.7-9.6l-8.3-6.7c-2.4-2-5.2-4.1-8-5.4s-5.6-3.5-8.6-5.1l-11-5.9-9.4-3.7c-3-1.2-5.9-3.4-9.3-3.5-5.4-.1-9.7-2.9-14.7-3.9-11.8-2.4-23.7-3.9-35.7-4.6l-11-.7c-5.1-.3-9.6-2.3-15-1.9s-10-.3-14.3,2.2c-1.3.7-1.5,1.9-3.5,2.3-5.7,1.1-11.9.8-17.4,2.6s-9.1,3.5-14.2,3.8-7.6,2.5-11.1,4.3-6.3,2-8.6,4.4-5.7,2.9-8.4,4.5-4.1,3.3-6.7,4.2-4.8,3-7.2,4.4-4.1,3.1-6.2,4.8l-7,5.4c-7,5.4-12.8,11.5-19.1,17.8-6.9,6.9-13.4,13.7-18.9,21.8-9.9,14.6-17.4,30-22.4,46.9-7,23.5-9.9,41.3-8.7,65.9,1.3,27.1,8.6,52.9,21,77.2,1.3,2.6-2.5,6-4.3,7.2-5.2-8.4-13.2-27.4-15.7-36.1s-1.4-3.3-2.6-2.8c-2.5,1-6.5,4.1-6.8,7.1s2.4,7.3,3.6,10.7c3.5,10.2,8.4,19.4,12.8,29.3s-2.3,5.7-4.4,6.5c-6.2-10.6-11-21.3-15.3-32.6s-1.5-4.3-3.3-6.5c-2.9,1.6-6.7,4.6-8.1,8.2Z"/>
    <path class="st38" d="M723.4,409.9c-3.5,2.8-8.6,1.1-12.1,1.4,1-2.4,2.5-3.3,4-4.4,4.9-3.7,8.8-7.8,13.4-11.9,9.9-8.9,18.5-18.7,25.8-29.8s12-19.2,16.7-30c11.8-27.1,17.8-56.1,16.4-85.7-.9-18.4-3.3-29.8-8.4-47.2s-3.9-12.7-6.9-19.1l-4.3-9.4c-2.1-4.5-4.2-8.7-7.3-12.6s2-7.2,4.4-7.7c5.8,8.9,10.2,18.2,14.5,28.1l31.8,27.8c4.6,4,8.5,8.1,12.9,12.3l9,8.5c.5.4,1.6.2,2,.1,2.8-.9-7.7-18.8-8.6-20.6-5-9.8-10.5-18.7-16.9-27.7s-7.7-11.4-12.4-16.7c-4.9-5.5-.3-12.6-.6-12.5.6-.3,1.5-.2,2.2.6,13.4,15.8,25.7,32.4,35.6,50.8,24,44.6,32.9,96,29.3,146.3-2.6,36.1-13.6,73.3-31,104.8-.9-.1-1.2-.1-1-.5s0-1.2.2-1.5c2.9-4.8,4.1-9.8,5.7-15.1l4.3-13.9c2.9-9.3,5.9-18.6,6.2-28.5l.4-15.4c.6-24.4,1-29.1-6.9-53-6.4-19.3-15.8-32.1-28.1-47.5-4.9-6.1-9.7-11.8-15.4-17.1-.5-.5-1.7-.4-2.1-.2-.7.2-.9,9.7-.9,9.8-2.1,15.8-4.6,31.4-9.7,46.6-12.1,35.8-32.3,66.7-61.8,90.7ZM843.3,254.1c-4.3-7.4-11.1-12.1-16.7-18-4.4-4.6-8.7-8.9-13.6-12.9-4.8-3.9-8.6-8.5-13-12.8l-6.5-6.5c-1.7-1.7-3.8-3.3-6.6-4.1l3,14.7c.5,2.3,1.3,3.9,3.1,5.5,14.5,12.7,28.7,25.5,40.4,40.8l14,18.4c5.5,7.2,0-17.7-4.3-25.1ZM832.8,272.6c-5.1-7.6-11.8-13.4-18-20.1-2.6-2.8-17.6-21.3-19.9-19.2s-1,1.4-.8,2.2c2.4,11.6-2.2,10.6,4.9,17.3,11.3,10.6,21.4,21.8,29.9,34.7.6.9,1.8,1.7,2.5,1.5,3.1-.7,5.9-9.7,1.5-16.4Z"/>
    <path class="st27" d="M527.8,393.1c3.6-5.9-5.6-8.3-8.3-12s-4.8-9.8-5.3-15.7c4.9,2.2,9.2,4.6,13.1,7.8,5.6,4.6,4.6,9.9,6.2,11s0-10.5,12.8-15.8c2.5-1,4.5-2.7,7.4-2.8-.7,9.9-3.4,15.2-11.9,20.3s-4.6,12.5-2.5,13.4c16.2,7.3,32.4,11.6,50.6,8.8s13.6-3.9,19.6-7.4c9.1-5.4,15.9-12.6,21.1-21.8,3-5.3,5.6-10.4,6.1-16.7,2.4-30-11.3-26.1-8-44.6.8-4.5-1.1-10,.9-14.2,6.3-8.5,13.8-15.8,20.9-23.7s6.5-7.8,10.8-11.7c.5,2.5.9,4.7.9,7.1v39.9c0,5.6-.7,10.6,0,16.3s0,5.1-.9,6.5c-7.4,12.2-13.1,9.3-16.9,29.8s-3,14.3-1.7,16,4.3,0,5.6,1.5.2,1.8-.2,2.8c-2.5,6.3-7,11.3-11.5,16.2-5.7,6.2-12,11-19.1,15.3-7.2,4.4-14.3,6.9-22.3,9.3-16.2,4.9-32.4,5.5-48.6.1-8.1-2.7-15.9-5.1-23.6-8.8-10-4.8-19.5-10.2-28-17.3l-14.1-11.8c-4.6-3.8-8-8.6-12.3-12.8s-.9-3,.1-4.2l14.1-15.5c.5-.5,1.5-.8,2-.6s1.1.7,1.6,1.3c7.3,8,14.7,15.4,23.2,22.1,5.9,4,11.2,8.3,18.4,11.7Z"/>
    <path class="st16" d="M612.8,108.5c-19.3,1.6-23.4,1.6-40.2,14.1-17.2,12.8-20,31.9-40.3,41.2l-11.9,5.5-16.3,7.5c-4.5,2.1-12.6,12.4-17.1,12.4.9-5.4,4-9.5,7-13.5,12.5-17.2,25.4-18.9,39.9-33.1s8.2-10.8,11.9-16.7c8.2-13.2,18.5-24.7,32.2-32.3,10.8-6,22.1-9.8,34.4-10.8,22.5-1.9,39.9,1.6,60.6,10.5,19.4,8.4,34.9,20.8,50.5,34.7-1.4,3.5-3.9,5.4-6.1,7.8-3.6,4-6.8,8.2-11.3,11.5-11-5.7-6.5-6.2-19.7-14.6s-10.1-7.7-15.9-10.4-9.9-4.3-15-6.4-6.5-3.3-10.4-3.9c-10.7-1.8-21.3-4.3-32.1-3.5Z"/>
    <path class="st13" d="M380.5,184.1c-9.5,20.7-16,37.4-19.6,59.8s-1.3,6-1.2,9.1-.8,6.1-1,9.3c-.4,6-.6,11.9,0,17.9l1.2,12.9c.2,2.4.5,5.1,1,7.4l2.6,13.7c3.2,17.1,18.5,56,28.1,71.3l11.8,18.7c1.3,2,1.6,3.9.6,6.3-3.3,8.4-6.4,17.1-5.2,26.2s1.6,7.6,1.1,11.8c-3.7-1.8-5.4-5.3-8-8.1-5.1-5.6-9.2-11.5-13.5-17.7-7-10.2-12.5-20.7-17.6-32.1-13.7-30.6-21.9-67.4-19.3-100.9,3-38.1,16.1-74.7,37.8-105.8l1.3.3Z"/>
    <path class="st5" d="M642.1,414.3c9.6-8.3,14.3-19.4,20.5-29.9l20.2-.3c2.3,0,4.4-.7,6.1-2.3,7.6-7.5,14.7-14.8,21.9-22.8,16.8-18.8,26.1-20.2,16.2-42.9s-1.8-6.4-.7-10.1c4.1-14.2,3.9-44.5.9-58.9-1.2-5.8-2.7-11.5-1.9-17.7,3.3,4.1,4.1,8.5,6,12.8,7,15.6,13.1,44.1,13.7,61.3.7,20.2-2.4,39.9-11.2,57.8-15.2,30.9-40.2,51-71.2,64.8-10.2,4.6-20.1,7.5-31.4,8.8s-15.6,3.5-19.4,3c-4.5-.6-9,.9-13.8-1,16.1-5,31.1-11.6,44-22.7Z"/>
    <path class="st17" d="M529.4,128.3c1-.3,1.7,0,1.7.4s.5,1.1.1,1.6c-5.4,6.7-10.5,14-17.8,18.9-7,4.8-13.9,9.2-19.7,15.4s-8.9,10.2-11.9,16.6c-11.7,24.9-13.5,47.6-10.7,75,.6,5.7,1.8,10.9,2,16.5s1.5,3.6-.2,5.1c-3.6-4.8-4.3-10.5-6.3-15.9-4.5-12-9-31.7-10.6-44.7-2.9-24.2,0-47.9,11.1-69.8,20-39.5,59.3-60,101.5-67.9,9.7-1.8,18.8-4.3,29-2.7-4.5,3.6-9.3,4.7-13.9,7s-8.5,4-12.9,5.8-4.1,2.9-6.4,3.7-4.9,2.6-7.4,4.4c-16.7,12.2-12.4,17.9-23.8,20.3-16.3,3.5-34.7,12.7-46.8,24.2s-18.4,28-18.8,44.5c1.1.6,2.3-.4,2.6-1.3,4.2-11.8,10.8-21.9,19.3-31.2s24.4-20.7,40-26Z"/>
    <path class="st24" d="M756.5,435.9c11.4-4.6,21-10.2,29.7-18.5,15.8-14.9,24.4-36.1,21.9-57.8-1.5-12.9-5.7-24.5-12.9-35s-1.8-3.2-1.3-4.9c2.1-7.1,4.4-13.9,5.9-21.2.7-3.2.7-6.5,2.3-9.9,9.2,7,16.1,15.1,21.9,24.6,13.8,22.8,18.4,48.3,7.8,73.3-5.5,13.1-13.7,24-25.2,32.5-12.5,9.2-25.1,14.8-40.7,16.8-3.1.3-5.9,1.6-9.4,0Z"/>
    <path class="st39" d="M755.1,332.9c3.6-15.8,6-34.1,3-50l-4.2-22.8-1.4-18.1c-1.4-18.6-7.4-36.1-15.7-52.9-.5-2.5,0-4.9,1.8-6.6,5.6-5.3,10-11,15.8-17.3,33.4,59,33.4,126.3.3,184.7-4.8,8.5-9.7,16.5-16.6,23.7.2-4.5,3.2-7.1,5-10.6,5-9.6,9.5-19.4,11.9-30Z"/>
    <path class="st31" d="M447.2,270.3c1.5,14.4,4.6,27.2,9.5,40.9.6,1.6,1.1,4.5,0,5.7-4.7,5.7-9.7,10.6-14,16.6-.9,1.3-1.8,2.5-3.8,3-7.2-16.2-12.7-30.2-15.9-47.9-4-23-3.8-45.9,1.2-68.6s17-53,34.1-74.2c.6,1.4,0,2.6-.5,3.8-4.6,9.4-8.7,18.7-12.1,28.6s-3.8,15.3-5.1,23.4c-2.4,15.2,1.3,33.5,6.2,48.1.1,7.1-.4,13.8.3,20.6Z"/>
    <path class="st36" d="M631.9,230.8c-1,1.2-3.4,3.6-5.1,2.6-3.3-2-7-6.3-8.3-10.2l-.2-63.8c0-1.1-.2-2.3-.7-2.8-2.2-2.3-10.9,1.2-12.4-1.9s-.5-1.9.1-2.7l23.3-27.7c1.4-1.7,2.7-5,5.3-4.9s4,3.6,5.5,5.4l13,15.5,9.2,11.4c.6.7.8,1.4.6,2.2-.9,2.7-9-.7-13.5,3l-.2,53.4c-2.5,4.2-5.7,7.2-8.6,10.8l-8,9.9Z"/>
    <path class="st18" d="M693.6,308.2c-7,1.4-16.9,17.1-16.9,10.1v-63.9c0-2.5,1-4.1,2.6-5.8l21.6-23.5c3.1-3.2,4.8-6.9,9.2-9.7v91.1c-2.6,2.7-11.7.8-16.5,1.7Z"/>
    <path class="st37" d="M567.4,243.7c-.6.6-5.3,8.3-7.3,7.4s-1-.6-1-1.4v-56.1c0-4.4-10.7-.3-12.7-3.4s-.5-1.9.2-2.7c9.1-10.6,18.1-20.9,26.6-32,.4-.6,1.2-.8,1.6-.7s1,.3,1.5.9l27.4,33.1c-6.3,4.6-13.7-.9-13.7,5.4l-.2,23.8c0,2.1-1.8,4.8-3.2,6.2l-19.1,19.4Z"/>
    <path class="st14" d="M518.7,250.3c-3.6,4-7.1,7.9-11.1,11.6s-2.8,4-5.5,3.4l-.2-37.2c0-6.4-8.9.2-13.1-3.4s1-3.4,1.9-4.4l22.2-26.3c1.5-1.8,2.2-3.8,4.9-4.5l27.7,33.4c1.2,1.5-2.9,2.8-4.1,2.9-2.1.2-5.9-.4-7.6,1.3s-.8,4.5-1.3,6.4c-1.2,4.1-4.2,6.5-6.9,9.4l-6.7,7.5Z"/>
    <path class="st23" d="M714.2,565.9c1-2.9,4-4,6.1-6,4.3-4.1,8.6-7.8,12.5-12.1,10.2-11.2,25.8-16.6,35.8-26.3,34.6-33.1,47.2-67.6,60.3-112.5,1.2-4.1,4.5-7.3,6.4-11s1.4-5.7,3.8-8.4c.2,13.1-7.5,46.3-12.3,57.5l-7.6,17.7c-11.9,27.6-26.3,45.3-48.4,65.2-14.8,13.4-31.4,23.5-49.2,32.2-2.4,1.2-4,3.1-7.4,3.5Z"/>
    <path class="st28" d="M743.3,423.6c0-.6,0-1.2,0-1.9,2.6.5,5.5-.5,7.9,1.5,11.7-8.4,20.9-18.4,29-29.7,2.1-3,4-5.4,4.7-9.1,1.1-6.3,1.7-12.7.8-19.2-4.2,3.8-5.8,8.2-8.6,12.4-7.9,11.6-16.1,22.7-26.4,32.2s-6.3,1.1-8.9.8c2.1-4,4.8-6.3,7.5-9.3,17-18.4,30.3-39,40.5-62.7,6.9,10.7,10.1,28.5,8,40.1-3.4,18.4-14.1,34.8-29.6,45.3-6.5,4.4-13.3,7-20.3,10.2s-8.2,4-13,3.2c-1-.2-2.1-.6-2.3-1.7s.8-1.7,1.7-2.2l14.8-9.1c-1.9-1.3-3.9-.5-5.6-.8Z"/>
    <path class="st7" d="M680.1,354.7c-10.2,1-9.5-.9-20.3,1.5s-1.1-.9-1.2-1.4.2-1.4.7-2l10.7-11.4c4-4.3,7.9-8.2,12.1-12.5s8.1-9.8,13.1-13.1c7.4-1.3,15.1-.1,23.3-.4l-32.1,33.4c-1.9,2-4,4.5-6.3,6Z"/>
    <path class="st21" d="M699.8,360.3c-4.1,4.4-7.9,8.7-12.9,13-1.8-4.8-2.5-9.4-2.9-14.1s2-2.9,2.6-4.4c11.7-11.2,22.3-23,33.3-35s4.6,12.9,4.5,14c-3.2,4.5-7,8-10.8,11.9l-13.8,14.7Z"/>
    <path class="st15" d="M682.7,375.4c-3.7,1.1-7.3.3-11,.7-6.3.6-12.5.2-19,.3s1.5-14.7,2.3-16.4c1.2-2.5,5.3-1.1,7.4-1l10.3.7c2,.1,3.9-.2,5.7,1,1.6,4.6,3.1,8.9,4.3,14.8Z"/>
    <path class="st19" d="M534.3,351.8c1.8-15.1,4-14.2,13.1-21s2.7-2.9,5.3-2.9c1.8,8.9-2.5,17.1-10.4,21.6s-4.1,3.4-8,2.3Z"/>
    <path class="st35" d="M533.6,307.6c6.6,10.9,8,21.4-.1,32.1-7.8-9.4-7.6-22.6.1-32.1Z"/>
    <path class="st11" d="M536,369.9c-3.3.9-1.4-13.9,7.9-17.9s5.5-3.8,9.6-4.7c1,10.8-7.7,20.1-17.4,22.7Z"/>
    <path class="st9" d="M531.3,352c-2.3.4-3.5-1-5-1.8-6.3-3.3-10-8.6-11.7-15.4s-1.4-4.3.4-6.4c9.6,5.9,19.2,10.8,16.3,23.6Z"/>
    <path class="st25" d="M530.8,370.3c-11-5.8-16.3-10.2-16.8-22.9,9.2,4.8,21.5,10.9,16.8,22.9Z"/>
    <path class="st22" d="M714.2,420c1.5,1.9-6.6,1.3-5.4.5,1.6-1.2,3.6-.5,5.4-.5Z"/>
    <path class="st20" d="M727.8,425.7c-1.3,1.1-3.1,1.3-4.8,1.2.4-2.2,3.4-1,4.8-1.2Z"/>
    <path class="st30" d="M736.3,420.5c0,.8-1.1.7-1.8.8s-1.5-.4-1.1-1.2c1.2,0,1.8.1,2.9.5Z"/>
    <path class="st6" d="M739.4,423.8c-.6.8-1.8,1.1-2.8,1.2-.1-.7.4-1,.9-1.4.7-.6,1.3-.2,1.9.3Z"/>
    <path class="st4" d="M702.6,421.2c.3.4,0,1-.5,1.2s-.8-.5-1.1-.7c.2-.6,1-.5,1.5-.5Z"/>
    <path class="st3" d="M694.8,423.1c.4.4,0,.9-.4,1.3s-.7-.7-1.1-.7c.2-.6,1-.5,1.5-.6Z"/>
    <path class="st10" d="M690.3,424.4c.4.3,0,1-.4,1.3s-.8-.4-1.1-.6c0-.7,1-.5,1.5-.6Z"/>
    <path class="st1" d="M721.4,427c-.2.6-1,.5-1.5.5-.3-.4,0-1,.5-1.2s.8.4,1.1.7Z"/>
    <path class="st8" d="M716.2,428.3c-.5.3-1,.3-1.6.5-.4-.4,0-1,.5-1.2s1.3.1,1.1.7Z"/>
    <path class="st34" d="M707.8,420.5c.3.3.2.6-.1.9s-.4.5-.8.2-.4-.4-.6-.6c0-.7,1-.4,1.5-.6Z"/>
    <g>
      <path class="st2" d="M614.1,384c-5.7,3.4-12.1,3.9-18.3,3.4-5.6-.5-10.3-3.8-14.3-7.4s-8.2-11.7-8.7-19.2c-1.4-20.1,15.2-34.7,21-48.9l6.6-16c2.3,2.9,2.6,6.4,3.9,9.5,2.2,5.6,4.4,10.6,7.8,15.6,8.6,12.5,19.2,27.4,15.9,43.8-1.6,7.9-6.7,15-13.7,19.2ZM587.3,340c0-.2-.1-.3-.3-.3s-.3.1-.3.3.1.3.3.3.3-.1.3-.3ZM586.1,352c0-3.9,1.6-7.5,0-11.5-5.3,7.2-7.4,16.1-5,24.3,4,14.1,21.8,14.9,21.1,10.2s-16.1-.8-16.1-23Z"/>
      <circle class="st26" cx="587" cy="340" r=".3"/>
    </g>
  </g>
</svg>